<?xml version="1.0" encoding="UTF-8" standalone="no"?>
<!DOCTYPE svg PUBLIC "-//W3C//DTD SVG 1.1//EN"
 "http://www.w3.org/Graphics/SVG/1.1/DTD/svg11.dtd">
<!-- Generated by graphviz version 2.47.0 (20210316.0004)
 -->
<!-- Title: dbml Pages: 1 -->
<svg width="3160pt" height="1835pt"
 viewBox="0.00 0.00 3160.03 1834.92" xmlns="http://www.w3.org/2000/svg" xmlns:xlink="http://www.w3.org/1999/xlink">
<g id="graph0" class="graph" transform="scale(1 1) rotate(0) translate(4 1830.92)">
<title>dbml</title>
<!-- Agent -->
<g id="Agent" class="node">
<title>Agent</title>
<ellipse fill="none" stroke="black" stroke-width="0" cx="2273.87" cy="-1641.96" rx="258.6" ry="172.57"/>
<polygon fill="#1d71b8" stroke="transparent" points="2092.87,-1701.96 2092.87,-1761.96 2454.87,-1761.96 2454.87,-1701.96 2092.87,-1701.96"/>
<polygon fill="none" stroke="#29235c" points="2092.87,-1701.96 2092.87,-1761.96 2454.87,-1761.96 2454.87,-1701.96 2092.87,-1701.96"/>
<text text-anchor="start" x="2169.82" y="-1723.16" font-family="Helvetica,sans-Serif" font-weight="bold" font-size="32.00" fill="#ffffff"> &#160;&#160;&#160;&#160;&#160;&#160;Agent &#160;&#160;&#160;&#160;&#160;&#160;</text>
<polygon fill="#e7e2dd" stroke="transparent" points="2092.87,-1641.96 2092.87,-1701.96 2454.87,-1701.96 2454.87,-1641.96 2092.87,-1641.96"/>
<polygon fill="none" stroke="#29235c" points="2092.87,-1641.96 2092.87,-1701.96 2454.87,-1701.96 2454.87,-1641.96 2092.87,-1641.96"/>
<text text-anchor="start" x="2103.87" y="-1663.16" font-family="Helvetica,sans-Serif" font-weight="bold" font-size="32.00" fill="#29235c">id</text>
<text text-anchor="start" x="2128.76" y="-1663.16" font-family="Helvetica,sans-Serif" font-size="32.00" fill="#29235c"> &#160;&#160;&#160;</text>
<text text-anchor="start" x="2301.65" y="-1663.16" font-family="Helvetica,sans-Serif" font-style="italic" font-size="32.00" fill="#29235c">INTEGER</text>
<polygon fill="#e7e2dd" stroke="transparent" points="2092.87,-1581.96 2092.87,-1641.96 2454.87,-1641.96 2454.87,-1581.96 2092.87,-1581.96"/>
<polygon fill="none" stroke="#29235c" points="2092.87,-1581.96 2092.87,-1641.96 2454.87,-1641.96 2454.87,-1581.96 2092.87,-1581.96"/>
<text text-anchor="start" x="2103.41" y="-1602.16" font-family="Helvetica,sans-Serif" font-size="32.00" fill="#29235c">first_name &#160;&#160;&#160;</text>
<text text-anchor="start" x="2287.66" y="-1603.16" font-family="Helvetica,sans-Serif" font-style="italic" font-size="32.00" fill="#29235c">VARCHAR</text>
<polygon fill="#e7e2dd" stroke="transparent" points="2092.87,-1521.96 2092.87,-1581.96 2454.87,-1581.96 2454.87,-1521.96 2092.87,-1521.96"/>
<polygon fill="none" stroke="#29235c" points="2092.87,-1521.96 2092.87,-1581.96 2454.87,-1581.96 2454.87,-1521.96 2092.87,-1521.96"/>
<text text-anchor="start" x="2103.87" y="-1542.16" font-family="Helvetica,sans-Serif" font-size="32.00" fill="#29235c">last_name &#160;&#160;&#160;</text>
<text text-anchor="start" x="2287.66" y="-1543.16" font-family="Helvetica,sans-Serif" font-style="italic" font-size="32.00" fill="#29235c">VARCHAR</text>
<polygon fill="none" stroke="#29235c" stroke-width="2" points="2091.87,-1520.96 2091.87,-1762.96 2455.87,-1762.96 2455.87,-1520.96 2091.87,-1520.96"/>
</g>
<!-- AgentAssignment -->
<g id="AgentAssignment" class="node">
<title>AgentAssignment</title>
<ellipse fill="none" stroke="black" stroke-width="0" cx="1529.35" cy="-1611.96" rx="392.39" ry="214.92"/>
<polygon fill="#1d71b8" stroke="transparent" points="1254.35,-1701.96 1254.35,-1761.96 1805.35,-1761.96 1805.35,-1701.96 1254.35,-1701.96"/>
<polygon fill="none" stroke="#29235c" points="1254.35,-1701.96 1254.35,-1761.96 1805.35,-1761.96 1805.35,-1701.96 1254.35,-1701.96"/>
<text text-anchor="start" x="1342.23" y="-1723.16" font-family="Helvetica,sans-Serif" font-weight="bold" font-size="32.00" fill="#ffffff"> &#160;&#160;&#160;&#160;&#160;&#160;AgentAssignment &#160;&#160;&#160;&#160;&#160;&#160;</text>
<polygon fill="#e7e2dd" stroke="transparent" points="1254.35,-1641.96 1254.35,-1701.96 1805.35,-1701.96 1805.35,-1641.96 1254.35,-1641.96"/>
<polygon fill="none" stroke="#29235c" points="1254.35,-1641.96 1254.35,-1701.96 1805.35,-1701.96 1805.35,-1641.96 1254.35,-1641.96"/>
<text text-anchor="start" x="1265.35" y="-1663.16" font-family="Helvetica,sans-Serif" font-weight="bold" font-size="32.00" fill="#29235c">id</text>
<text text-anchor="start" x="1290.24" y="-1663.16" font-family="Helvetica,sans-Serif" font-size="32.00" fill="#29235c"> &#160;&#160;&#160;</text>
<text text-anchor="start" x="1652.13" y="-1663.16" font-family="Helvetica,sans-Serif" font-style="italic" font-size="32.00" fill="#29235c">INTEGER</text>
<polygon fill="#e7e2dd" stroke="transparent" points="1254.35,-1581.96 1254.35,-1641.96 1805.35,-1641.96 1805.35,-1581.96 1254.35,-1581.96"/>
<polygon fill="none" stroke="#29235c" points="1254.35,-1581.96 1254.35,-1641.96 1805.35,-1641.96 1805.35,-1581.96 1254.35,-1581.96"/>
<text text-anchor="start" x="1265.35" y="-1602.16" font-family="Helvetica,sans-Serif" font-size="32.00" fill="#29235c">assignment_date &#160;&#160;&#160;</text>
<text text-anchor="start" x="1709.02" y="-1603.16" font-family="Helvetica,sans-Serif" font-style="italic" font-size="32.00" fill="#29235c">DATE</text>
<polygon fill="#e7e2dd" stroke="transparent" points="1254.35,-1521.96 1254.35,-1581.96 1805.35,-1581.96 1805.35,-1521.96 1254.35,-1521.96"/>
<polygon fill="none" stroke="#29235c" points="1254.35,-1521.96 1254.35,-1581.96 1805.35,-1581.96 1805.35,-1521.96 1254.35,-1521.96"/>
<text text-anchor="start" x="1265.35" y="-1542.16" font-family="Helvetica,sans-Serif" font-size="32.00" fill="#29235c">agent_id &#160;&#160;&#160;</text>
<text text-anchor="start" x="1652.13" y="-1543.16" font-family="Helvetica,sans-Serif" font-style="italic" font-size="32.00" fill="#29235c">INTEGER</text>
<polygon fill="#e7e2dd" stroke="transparent" points="1254.35,-1461.96 1254.35,-1521.96 1805.35,-1521.96 1805.35,-1461.96 1254.35,-1461.96"/>
<polygon fill="none" stroke="#29235c" points="1254.35,-1461.96 1254.35,-1521.96 1805.35,-1521.96 1805.35,-1461.96 1254.35,-1461.96"/>
<text text-anchor="start" x="1265.02" y="-1482.16" font-family="Helvetica,sans-Serif" font-size="32.00" fill="#29235c">insurance_application_id &#160;&#160;&#160;</text>
<text text-anchor="start" x="1652.24" y="-1483.16" font-family="Helvetica,sans-Serif" font-style="italic" font-size="32.00" fill="#29235c">INTEGER</text>
<polygon fill="none" stroke="#29235c" stroke-width="2" points="1252.85,-1460.96 1252.85,-1762.96 1805.85,-1762.96 1805.85,-1460.96 1252.85,-1460.96"/>
</g>
<!-- AgentAssignment&#45;&gt;Agent -->
<!-- AgentAssignment&#45;&gt;Agent -->
<g id="edge2" class="edge">
<title>AgentAssignment:e&#45;&gt;Agent:w</title>
<path fill="none" stroke="#29235c" stroke-width="3" d="M1806.35,-1551.96C1940.5,-1551.96 1953.62,-1665.94 2081.63,-1671.73"/>
<polygon fill="#29235c" stroke="#29235c" stroke-width="3" points="2081.79,-1675.24 2091.87,-1671.96 2081.95,-1668.24 2081.79,-1675.24"/>
<text text-anchor="middle" x="2085.65" y="-1681.56" font-family="Helvetica,sans-Serif" font-size="32.00" fill="#29235c">*</text>
<text text-anchor="middle" x="1797.45" y="-1561.56" font-family="Helvetica,sans-Serif" font-size="32.00" fill="#29235c">1</text>
</g>
<!-- InsuranceApplication -->
<g id="InsuranceApplication" class="node">
<title>InsuranceApplication</title>
<ellipse fill="none" stroke="black" stroke-width="0" cx="2273.87" cy="-1194.96" rx="316.15" ry="214.92"/>
<polygon fill="#1d71b8" stroke="transparent" points="2052.87,-1284.96 2052.87,-1344.96 2495.87,-1344.96 2495.87,-1284.96 2052.87,-1284.96"/>
<polygon fill="none" stroke="#29235c" points="2052.87,-1284.96 2052.87,-1344.96 2495.87,-1344.96 2495.87,-1284.96 2052.87,-1284.96"/>
<text text-anchor="start" x="2063.63" y="-1306.16" font-family="Helvetica,sans-Serif" font-weight="bold" font-size="32.00" fill="#ffffff"> &#160;&#160;&#160;&#160;&#160;&#160;InsuranceApplication &#160;&#160;&#160;&#160;&#160;&#160;</text>
<polygon fill="#e7e2dd" stroke="transparent" points="2052.87,-1224.96 2052.87,-1284.96 2495.87,-1284.96 2495.87,-1224.96 2052.87,-1224.96"/>
<polygon fill="none" stroke="#29235c" points="2052.87,-1224.96 2052.87,-1284.96 2495.87,-1284.96 2495.87,-1224.96 2052.87,-1224.96"/>
<text text-anchor="start" x="2063.87" y="-1246.16" font-family="Helvetica,sans-Serif" font-weight="bold" font-size="32.00" fill="#29235c">id</text>
<text text-anchor="start" x="2088.76" y="-1246.16" font-family="Helvetica,sans-Serif" font-size="32.00" fill="#29235c"> &#160;&#160;&#160;</text>
<text text-anchor="start" x="2342.65" y="-1246.16" font-family="Helvetica,sans-Serif" font-style="italic" font-size="32.00" fill="#29235c">INTEGER</text>
<polygon fill="#e7e2dd" stroke="transparent" points="2052.87,-1164.96 2052.87,-1224.96 2495.87,-1224.96 2495.87,-1164.96 2052.87,-1164.96"/>
<polygon fill="none" stroke="#29235c" points="2052.87,-1164.96 2052.87,-1224.96 2495.87,-1224.96 2495.87,-1164.96 2052.87,-1164.96"/>
<text text-anchor="start" x="2063.87" y="-1185.16" font-family="Helvetica,sans-Serif" font-size="32.00" fill="#29235c">application_date &#160;&#160;&#160;</text>
<text text-anchor="start" x="2399.54" y="-1186.16" font-family="Helvetica,sans-Serif" font-style="italic" font-size="32.00" fill="#29235c">DATE</text>
<polygon fill="#e7e2dd" stroke="transparent" points="2052.87,-1104.96 2052.87,-1164.96 2495.87,-1164.96 2495.87,-1104.96 2052.87,-1104.96"/>
<polygon fill="none" stroke="#29235c" points="2052.87,-1104.96 2052.87,-1164.96 2495.87,-1164.96 2495.87,-1104.96 2052.87,-1104.96"/>
<text text-anchor="start" x="2063.87" y="-1125.16" font-family="Helvetica,sans-Serif" font-size="32.00" fill="#29235c">status &#160;&#160;&#160;</text>
<text text-anchor="start" x="2328.44" y="-1126.16" font-family="Helvetica,sans-Serif" font-style="italic" font-size="32.00" fill="#29235c">VARCHAR</text>
<polygon fill="#e7e2dd" stroke="transparent" points="2052.87,-1044.96 2052.87,-1104.96 2495.87,-1104.96 2495.87,-1044.96 2052.87,-1044.96"/>
<polygon fill="none" stroke="#29235c" points="2052.87,-1044.96 2052.87,-1104.96 2495.87,-1104.96 2495.87,-1044.96 2052.87,-1044.96"/>
<text text-anchor="start" x="2063.87" y="-1065.16" font-family="Helvetica,sans-Serif" font-size="32.00" fill="#29235c">customer_id &#160;&#160;&#160;</text>
<text text-anchor="start" x="2342.65" y="-1066.16" font-family="Helvetica,sans-Serif" font-style="italic" font-size="32.00" fill="#29235c">INTEGER</text>
<polygon fill="none" stroke="#29235c" stroke-width="2" points="2051.37,-1043.96 2051.37,-1345.96 2496.37,-1345.96 2496.37,-1043.96 2051.37,-1043.96"/>
</g>
<!-- AgentAssignment&#45;&gt;InsuranceApplication -->
<!-- AgentAssignment&#45;&gt;InsuranceApplication -->
<g id="edge4" class="edge">
<title>AgentAssignment:e&#45;&gt;InsuranceApplication:w</title>
<path fill="none" stroke="#29235c" stroke-width="3" d="M1806.35,-1491.96C1954.46,-1491.96 1902.8,-1265.94 2041.54,-1255.34"/>
<polygon fill="#29235c" stroke="#29235c" stroke-width="3" points="2042.01,-1258.83 2051.87,-1254.96 2041.74,-1251.84 2042.01,-1258.83"/>
<text text-anchor="middle" x="2045.65" y="-1264.56" font-family="Helvetica,sans-Serif" font-size="32.00" fill="#29235c">*</text>
<text text-anchor="middle" x="1797.45" y="-1501.56" font-family="Helvetica,sans-Serif" font-size="32.00" fill="#29235c">1</text>
</g>
<!-- Customer -->
<g id="Customer" class="node">
<title>Customer</title>
<ellipse fill="none" stroke="black" stroke-width="0" cx="2888.99" cy="-704.96" rx="258.6" ry="257.27"/>
<polygon fill="#1d71b8" stroke="transparent" points="2707.99,-824.96 2707.99,-884.96 3069.99,-884.96 3069.99,-824.96 2707.99,-824.96"/>
<polygon fill="none" stroke="#29235c" points="2707.99,-824.96 2707.99,-884.96 3069.99,-884.96 3069.99,-824.96 2707.99,-824.96"/>
<text text-anchor="start" x="2757.41" y="-846.16" font-family="Helvetica,sans-Serif" font-weight="bold" font-size="32.00" fill="#ffffff"> &#160;&#160;&#160;&#160;&#160;&#160;Customer &#160;&#160;&#160;&#160;&#160;&#160;</text>
<polygon fill="#e7e2dd" stroke="transparent" points="2707.99,-764.96 2707.99,-824.96 3069.99,-824.96 3069.99,-764.96 2707.99,-764.96"/>
<polygon fill="none" stroke="#29235c" points="2707.99,-764.96 2707.99,-824.96 3069.99,-824.96 3069.99,-764.96 2707.99,-764.96"/>
<text text-anchor="start" x="2718.99" y="-786.16" font-family="Helvetica,sans-Serif" font-weight="bold" font-size="32.00" fill="#29235c">id</text>
<text text-anchor="start" x="2743.88" y="-786.16" font-family="Helvetica,sans-Serif" font-size="32.00" fill="#29235c"> &#160;&#160;&#160;</text>
<text text-anchor="start" x="2916.77" y="-786.16" font-family="Helvetica,sans-Serif" font-style="italic" font-size="32.00" fill="#29235c">INTEGER</text>
<polygon fill="#e7e2dd" stroke="transparent" points="2707.99,-704.96 2707.99,-764.96 3069.99,-764.96 3069.99,-704.96 2707.99,-704.96"/>
<polygon fill="none" stroke="#29235c" points="2707.99,-704.96 2707.99,-764.96 3069.99,-764.96 3069.99,-704.96 2707.99,-704.96"/>
<text text-anchor="start" x="2718.53" y="-725.16" font-family="Helvetica,sans-Serif" font-size="32.00" fill="#29235c">first_name &#160;&#160;&#160;</text>
<text text-anchor="start" x="2902.78" y="-726.16" font-family="Helvetica,sans-Serif" font-style="italic" font-size="32.00" fill="#29235c">VARCHAR</text>
<polygon fill="#e7e2dd" stroke="transparent" points="2707.99,-644.96 2707.99,-704.96 3069.99,-704.96 3069.99,-644.96 2707.99,-644.96"/>
<polygon fill="none" stroke="#29235c" points="2707.99,-644.96 2707.99,-704.96 3069.99,-704.96 3069.99,-644.96 2707.99,-644.96"/>
<text text-anchor="start" x="2718.99" y="-665.16" font-family="Helvetica,sans-Serif" font-size="32.00" fill="#29235c">last_name &#160;&#160;&#160;</text>
<text text-anchor="start" x="2902.78" y="-666.16" font-family="Helvetica,sans-Serif" font-style="italic" font-size="32.00" fill="#29235c">VARCHAR</text>
<polygon fill="#e7e2dd" stroke="transparent" points="2707.99,-584.96 2707.99,-644.96 3069.99,-644.96 3069.99,-584.96 2707.99,-584.96"/>
<polygon fill="none" stroke="#29235c" points="2707.99,-584.96 2707.99,-644.96 3069.99,-644.96 3069.99,-584.96 2707.99,-584.96"/>
<text text-anchor="start" x="2718.99" y="-605.16" font-family="Helvetica,sans-Serif" font-size="32.00" fill="#29235c">birthdate &#160;&#160;&#160;</text>
<text text-anchor="start" x="2973.66" y="-606.16" font-family="Helvetica,sans-Serif" font-style="italic" font-size="32.00" fill="#29235c">DATE</text>
<polygon fill="#e7e2dd" stroke="transparent" points="2707.99,-524.96 2707.99,-584.96 3069.99,-584.96 3069.99,-524.96 2707.99,-524.96"/>
<polygon fill="none" stroke="#29235c" points="2707.99,-524.96 2707.99,-584.96 3069.99,-584.96 3069.99,-524.96 2707.99,-524.96"/>
<text text-anchor="start" x="2718.99" y="-545.16" font-family="Helvetica,sans-Serif" font-size="32.00" fill="#29235c">email &#160;&#160;&#160;</text>
<text text-anchor="start" x="2902.56" y="-546.16" font-family="Helvetica,sans-Serif" font-style="italic" font-size="32.00" fill="#29235c">VARCHAR</text>
<polygon fill="none" stroke="#29235c" stroke-width="2" points="2706.99,-523.96 2706.99,-885.96 3070.99,-885.96 3070.99,-523.96 2706.99,-523.96"/>
</g>
<!-- InsuranceApplication&#45;&gt;Customer -->
<!-- InsuranceApplication&#45;&gt;Customer -->
<g id="edge6" class="edge">
<title>InsuranceApplication:e&#45;&gt;Customer:w</title>
<path fill="none" stroke="#29235c" stroke-width="3" d="M2496.87,-1074.96C2648.96,-1074.96 2555.81,-807.4 2696.89,-795.38"/>
<polygon fill="#29235c" stroke="#29235c" stroke-width="3" points="2697.14,-798.87 2706.99,-794.96 2696.85,-791.88 2697.14,-798.87"/>
<text text-anchor="middle" x="2700.77" y="-804.56" font-family="Helvetica,sans-Serif" font-size="32.00" fill="#29235c">*</text>
<text text-anchor="middle" x="2487.97" y="-1084.56" font-family="Helvetica,sans-Serif" font-size="32.00" fill="#29235c">1</text>
</g>
<!-- Billing -->
<g id="Billing" class="node">
<title>Billing</title>
<ellipse fill="none" stroke="black" stroke-width="0" cx="269.41" cy="-1611.96" rx="269.32" ry="214.92"/>
<polygon fill="#1d71b8" stroke="transparent" points="81.41,-1701.96 81.41,-1761.96 458.41,-1761.96 458.41,-1701.96 81.41,-1701.96"/>
<polygon fill="none" stroke="#29235c" points="81.41,-1701.96 81.41,-1761.96 458.41,-1761.96 458.41,-1701.96 81.41,-1701.96"/>
<text text-anchor="start" x="165" y="-1723.16" font-family="Helvetica,sans-Serif" font-weight="bold" font-size="32.00" fill="#ffffff"> &#160;&#160;&#160;&#160;&#160;&#160;Billing &#160;&#160;&#160;&#160;&#160;&#160;</text>
<polygon fill="#e7e2dd" stroke="transparent" points="81.41,-1641.96 81.41,-1701.96 458.41,-1701.96 458.41,-1641.96 81.41,-1641.96"/>
<polygon fill="none" stroke="#29235c" points="81.41,-1641.96 81.41,-1701.96 458.41,-1701.96 458.41,-1641.96 81.41,-1641.96"/>
<text text-anchor="start" x="92.41" y="-1663.16" font-family="Helvetica,sans-Serif" font-weight="bold" font-size="32.00" fill="#29235c">id</text>
<text text-anchor="start" x="117.3" y="-1663.16" font-family="Helvetica,sans-Serif" font-size="32.00" fill="#29235c"> &#160;&#160;&#160;</text>
<text text-anchor="start" x="305.19" y="-1663.16" font-family="Helvetica,sans-Serif" font-style="italic" font-size="32.00" fill="#29235c">INTEGER</text>
<polygon fill="#e7e2dd" stroke="transparent" points="81.41,-1581.96 81.41,-1641.96 458.41,-1641.96 458.41,-1581.96 81.41,-1581.96"/>
<polygon fill="none" stroke="#29235c" points="81.41,-1581.96 81.41,-1641.96 458.41,-1641.96 458.41,-1581.96 81.41,-1581.96"/>
<text text-anchor="start" x="92.41" y="-1602.16" font-family="Helvetica,sans-Serif" font-size="32.00" fill="#29235c">billing_date &#160;&#160;&#160;</text>
<text text-anchor="start" x="362.08" y="-1603.16" font-family="Helvetica,sans-Serif" font-style="italic" font-size="32.00" fill="#29235c">DATE</text>
<polygon fill="#e7e2dd" stroke="transparent" points="81.41,-1521.96 81.41,-1581.96 458.41,-1581.96 458.41,-1521.96 81.41,-1521.96"/>
<polygon fill="none" stroke="#29235c" points="81.41,-1521.96 81.41,-1581.96 458.41,-1581.96 458.41,-1521.96 81.41,-1521.96"/>
<text text-anchor="start" x="92.19" y="-1542.16" font-family="Helvetica,sans-Serif" font-size="32.00" fill="#29235c">amount_due &#160;&#160;&#160;</text>
<text text-anchor="start" x="305.3" y="-1543.16" font-family="Helvetica,sans-Serif" font-style="italic" font-size="32.00" fill="#29235c">INTEGER</text>
<polygon fill="#e7e2dd" stroke="transparent" points="81.41,-1461.96 81.41,-1521.96 458.41,-1521.96 458.41,-1461.96 81.41,-1461.96"/>
<polygon fill="none" stroke="#29235c" points="81.41,-1461.96 81.41,-1521.96 458.41,-1521.96 458.41,-1461.96 81.41,-1461.96"/>
<text text-anchor="start" x="92.41" y="-1482.16" font-family="Helvetica,sans-Serif" font-size="32.00" fill="#29235c">premium_id &#160;&#160;&#160;</text>
<text text-anchor="start" x="305.19" y="-1483.16" font-family="Helvetica,sans-Serif" font-style="italic" font-size="32.00" fill="#29235c">INTEGER</text>
<polygon fill="none" stroke="#29235c" stroke-width="2" points="79.91,-1460.96 79.91,-1762.96 458.91,-1762.96 458.91,-1460.96 79.91,-1460.96"/>
</g>
<!-- Premium -->
<g id="Premium" class="node">
<title>Premium</title>
<ellipse fill="none" stroke="black" stroke-width="0" cx="837.86" cy="-1611.96" rx="231.86" ry="214.92"/>
<polygon fill="#1d71b8" stroke="transparent" points="675.86,-1701.96 675.86,-1761.96 999.86,-1761.96 999.86,-1701.96 675.86,-1701.96"/>
<polygon fill="none" stroke="#29235c" points="675.86,-1701.96 675.86,-1761.96 999.86,-1761.96 999.86,-1701.96 675.86,-1701.96"/>
<text text-anchor="start" x="711.62" y="-1723.16" font-family="Helvetica,sans-Serif" font-weight="bold" font-size="32.00" fill="#ffffff"> &#160;&#160;&#160;&#160;&#160;&#160;Premium &#160;&#160;&#160;&#160;&#160;&#160;</text>
<polygon fill="#e7e2dd" stroke="transparent" points="675.86,-1641.96 675.86,-1701.96 999.86,-1701.96 999.86,-1641.96 675.86,-1641.96"/>
<polygon fill="none" stroke="#29235c" points="675.86,-1641.96 675.86,-1701.96 999.86,-1701.96 999.86,-1641.96 675.86,-1641.96"/>
<text text-anchor="start" x="686.86" y="-1663.16" font-family="Helvetica,sans-Serif" font-weight="bold" font-size="32.00" fill="#29235c">id</text>
<text text-anchor="start" x="711.75" y="-1663.16" font-family="Helvetica,sans-Serif" font-size="32.00" fill="#29235c"> &#160;&#160;&#160;</text>
<text text-anchor="start" x="846.64" y="-1663.16" font-family="Helvetica,sans-Serif" font-style="italic" font-size="32.00" fill="#29235c">INTEGER</text>
<polygon fill="#e7e2dd" stroke="transparent" points="675.86,-1581.96 675.86,-1641.96 999.86,-1641.96 999.86,-1581.96 675.86,-1581.96"/>
<polygon fill="none" stroke="#29235c" points="675.86,-1581.96 675.86,-1641.96 999.86,-1641.96 999.86,-1581.96 675.86,-1581.96"/>
<text text-anchor="start" x="686.86" y="-1602.16" font-family="Helvetica,sans-Serif" font-size="32.00" fill="#29235c">amount &#160;&#160;&#160;</text>
<text text-anchor="start" x="846.64" y="-1603.16" font-family="Helvetica,sans-Serif" font-style="italic" font-size="32.00" fill="#29235c">INTEGER</text>
<polygon fill="#e7e2dd" stroke="transparent" points="675.86,-1521.96 675.86,-1581.96 999.86,-1581.96 999.86,-1521.96 675.86,-1521.96"/>
<polygon fill="none" stroke="#29235c" points="675.86,-1521.96 675.86,-1581.96 999.86,-1581.96 999.86,-1521.96 675.86,-1521.96"/>
<text text-anchor="start" x="686.86" y="-1542.16" font-family="Helvetica,sans-Serif" font-size="32.00" fill="#29235c">due_date &#160;&#160;&#160;</text>
<text text-anchor="start" x="903.53" y="-1543.16" font-family="Helvetica,sans-Serif" font-style="italic" font-size="32.00" fill="#29235c">DATE</text>
<polygon fill="#e7e2dd" stroke="transparent" points="675.86,-1461.96 675.86,-1521.96 999.86,-1521.96 999.86,-1461.96 675.86,-1461.96"/>
<polygon fill="none" stroke="#29235c" points="675.86,-1461.96 675.86,-1521.96 999.86,-1521.96 999.86,-1461.96 675.86,-1461.96"/>
<text text-anchor="start" x="686.84" y="-1482.16" font-family="Helvetica,sans-Serif" font-size="32.00" fill="#29235c">policy_id &#160;&#160;&#160;</text>
<text text-anchor="start" x="846.75" y="-1483.16" font-family="Helvetica,sans-Serif" font-style="italic" font-size="32.00" fill="#29235c">INTEGER</text>
<polygon fill="none" stroke="#29235c" stroke-width="2" points="674.86,-1460.96 674.86,-1762.96 1000.86,-1762.96 1000.86,-1460.96 674.86,-1460.96"/>
</g>
<!-- Billing&#45;&gt;Premium -->
<!-- Billing&#45;&gt;Premium -->
<g id="edge8" class="edge">
<title>Billing:e&#45;&gt;Premium:w</title>
<path fill="none" stroke="#29235c" stroke-width="3" d="M459.41,-1491.96C580.65,-1491.96 551.89,-1661.91 664.63,-1671.54"/>
<polygon fill="#29235c" stroke="#29235c" stroke-width="3" points="664.72,-1675.04 674.86,-1671.96 665.01,-1668.05 664.72,-1675.04"/>
<text text-anchor="middle" x="668.64" y="-1681.56" font-family="Helvetica,sans-Serif" font-size="32.00" fill="#29235c">*</text>
<text text-anchor="middle" x="450.51" y="-1501.56" font-family="Helvetica,sans-Serif" font-size="32.00" fill="#29235c">1</text>
</g>
<!-- Policy -->
<g id="Policy" class="node">
<title>Policy</title>
<ellipse fill="none" stroke="black" stroke-width="0" cx="1529.35" cy="-1121.96" rx="392.39" ry="257.27"/>
<polygon fill="#1d71b8" stroke="transparent" points="1254.35,-1241.96 1254.35,-1301.96 1805.35,-1301.96 1805.35,-1241.96 1254.35,-1241.96"/>
<polygon fill="none" stroke="#29235c" points="1254.35,-1241.96 1254.35,-1301.96 1805.35,-1301.96 1805.35,-1241.96 1254.35,-1241.96"/>
<text text-anchor="start" x="1424.93" y="-1263.16" font-family="Helvetica,sans-Serif" font-weight="bold" font-size="32.00" fill="#ffffff"> &#160;&#160;&#160;&#160;&#160;&#160;Policy &#160;&#160;&#160;&#160;&#160;&#160;</text>
<polygon fill="#e7e2dd" stroke="transparent" points="1254.35,-1181.96 1254.35,-1241.96 1805.35,-1241.96 1805.35,-1181.96 1254.35,-1181.96"/>
<polygon fill="none" stroke="#29235c" points="1254.35,-1181.96 1254.35,-1241.96 1805.35,-1241.96 1805.35,-1181.96 1254.35,-1181.96"/>
<text text-anchor="start" x="1265.35" y="-1203.16" font-family="Helvetica,sans-Serif" font-weight="bold" font-size="32.00" fill="#29235c">id</text>
<text text-anchor="start" x="1290.24" y="-1203.16" font-family="Helvetica,sans-Serif" font-size="32.00" fill="#29235c"> &#160;&#160;&#160;</text>
<text text-anchor="start" x="1652.13" y="-1203.16" font-family="Helvetica,sans-Serif" font-style="italic" font-size="32.00" fill="#29235c">INTEGER</text>
<polygon fill="#e7e2dd" stroke="transparent" points="1254.35,-1121.96 1254.35,-1181.96 1805.35,-1181.96 1805.35,-1121.96 1254.35,-1121.96"/>
<polygon fill="none" stroke="#29235c" points="1254.35,-1121.96 1254.35,-1181.96 1805.35,-1181.96 1805.35,-1121.96 1254.35,-1121.96"/>
<text text-anchor="start" x="1265.35" y="-1142.16" font-family="Helvetica,sans-Serif" font-size="32.00" fill="#29235c">policy_number &#160;&#160;&#160;</text>
<text text-anchor="start" x="1637.92" y="-1143.16" font-family="Helvetica,sans-Serif" font-style="italic" font-size="32.00" fill="#29235c">VARCHAR</text>
<polygon fill="#e7e2dd" stroke="transparent" points="1254.35,-1061.96 1254.35,-1121.96 1805.35,-1121.96 1805.35,-1061.96 1254.35,-1061.96"/>
<polygon fill="none" stroke="#29235c" points="1254.35,-1061.96 1254.35,-1121.96 1805.35,-1121.96 1805.35,-1061.96 1254.35,-1061.96"/>
<text text-anchor="start" x="1265.35" y="-1082.16" font-family="Helvetica,sans-Serif" font-size="32.00" fill="#29235c">effective_date &#160;&#160;&#160;</text>
<text text-anchor="start" x="1709.02" y="-1083.16" font-family="Helvetica,sans-Serif" font-style="italic" font-size="32.00" fill="#29235c">DATE</text>
<polygon fill="#e7e2dd" stroke="transparent" points="1254.35,-1001.96 1254.35,-1061.96 1805.35,-1061.96 1805.35,-1001.96 1254.35,-1001.96"/>
<polygon fill="none" stroke="#29235c" points="1254.35,-1001.96 1254.35,-1061.96 1805.35,-1061.96 1805.35,-1001.96 1254.35,-1001.96"/>
<text text-anchor="start" x="1265.35" y="-1022.16" font-family="Helvetica,sans-Serif" font-size="32.00" fill="#29235c">expiration_date &#160;&#160;&#160;</text>
<text text-anchor="start" x="1709.02" y="-1023.16" font-family="Helvetica,sans-Serif" font-style="italic" font-size="32.00" fill="#29235c">DATE</text>
<polygon fill="#e7e2dd" stroke="transparent" points="1254.35,-941.96 1254.35,-1001.96 1805.35,-1001.96 1805.35,-941.96 1254.35,-941.96"/>
<polygon fill="none" stroke="#29235c" points="1254.35,-941.96 1254.35,-1001.96 1805.35,-1001.96 1805.35,-941.96 1254.35,-941.96"/>
<text text-anchor="start" x="1265.02" y="-962.16" font-family="Helvetica,sans-Serif" font-size="32.00" fill="#29235c">insurance_application_id &#160;&#160;&#160;</text>
<text text-anchor="start" x="1652.24" y="-963.16" font-family="Helvetica,sans-Serif" font-style="italic" font-size="32.00" fill="#29235c">INTEGER</text>
<polygon fill="none" stroke="#29235c" stroke-width="2" points="1252.85,-940.96 1252.85,-1302.96 1805.85,-1302.96 1805.85,-940.96 1252.85,-940.96"/>
</g>
<!-- Premium&#45;&gt;Policy -->
<!-- Premium&#45;&gt;Policy -->
<g id="edge10" class="edge">
<title>Premium:e&#45;&gt;Policy:w</title>
<path fill="none" stroke="#29235c" stroke-width="3" d="M1000.86,-1491.96C1164.99,-1491.96 1089.06,-1223.33 1243.35,-1212.31"/>
<polygon fill="#29235c" stroke="#29235c" stroke-width="3" points="1243.48,-1215.81 1253.35,-1211.96 1243.23,-1208.81 1243.48,-1215.81"/>
<text text-anchor="middle" x="1259.57" y="-1221.56" font-family="Helvetica,sans-Serif" font-size="32.00" fill="#29235c">*</text>
<text text-anchor="middle" x="991.96" y="-1501.56" font-family="Helvetica,sans-Serif" font-size="32.00" fill="#29235c">1</text>
</g>
<!-- Claim -->
<g id="Claim" class="node">
<title>Claim</title>
<ellipse fill="none" stroke="black" stroke-width="0" cx="837.86" cy="-1121.96" rx="263.09" ry="257.27"/>
<polygon fill="#1d71b8" stroke="transparent" points="653.86,-1241.96 653.86,-1301.96 1021.86,-1301.96 1021.86,-1241.96 653.86,-1241.96"/>
<polygon fill="none" stroke="#29235c" points="653.86,-1241.96 653.86,-1301.96 1021.86,-1301.96 1021.86,-1241.96 653.86,-1241.96"/>
<text text-anchor="start" x="734.74" y="-1263.16" font-family="Helvetica,sans-Serif" font-weight="bold" font-size="32.00" fill="#ffffff"> &#160;&#160;&#160;&#160;&#160;&#160;Claim &#160;&#160;&#160;&#160;&#160;&#160;</text>
<polygon fill="#e7e2dd" stroke="transparent" points="653.86,-1181.96 653.86,-1241.96 1021.86,-1241.96 1021.86,-1181.96 653.86,-1181.96"/>
<polygon fill="none" stroke="#29235c" points="653.86,-1181.96 653.86,-1241.96 1021.86,-1241.96 1021.86,-1181.96 653.86,-1181.96"/>
<text text-anchor="start" x="664.86" y="-1203.16" font-family="Helvetica,sans-Serif" font-weight="bold" font-size="32.00" fill="#29235c">id</text>
<text text-anchor="start" x="689.75" y="-1203.16" font-family="Helvetica,sans-Serif" font-size="32.00" fill="#29235c"> &#160;&#160;&#160;</text>
<text text-anchor="start" x="868.64" y="-1203.16" font-family="Helvetica,sans-Serif" font-style="italic" font-size="32.00" fill="#29235c">INTEGER</text>
<polygon fill="#e7e2dd" stroke="transparent" points="653.86,-1121.96 653.86,-1181.96 1021.86,-1181.96 1021.86,-1121.96 653.86,-1121.96"/>
<polygon fill="none" stroke="#29235c" points="653.86,-1121.96 653.86,-1181.96 1021.86,-1181.96 1021.86,-1121.96 653.86,-1121.96"/>
<text text-anchor="start" x="664.86" y="-1142.16" font-family="Helvetica,sans-Serif" font-size="32.00" fill="#29235c">claim_date &#160;&#160;&#160;</text>
<text text-anchor="start" x="925.53" y="-1143.16" font-family="Helvetica,sans-Serif" font-style="italic" font-size="32.00" fill="#29235c">DATE</text>
<polygon fill="#e7e2dd" stroke="transparent" points="653.86,-1061.96 653.86,-1121.96 1021.86,-1121.96 1021.86,-1061.96 653.86,-1061.96"/>
<polygon fill="none" stroke="#29235c" points="653.86,-1061.96 653.86,-1121.96 1021.86,-1121.96 1021.86,-1061.96 653.86,-1061.96"/>
<text text-anchor="start" x="664.73" y="-1082.16" font-family="Helvetica,sans-Serif" font-size="32.00" fill="#29235c">description &#160;&#160;&#160;</text>
<text text-anchor="start" x="854.65" y="-1083.16" font-family="Helvetica,sans-Serif" font-style="italic" font-size="32.00" fill="#29235c">VARCHAR</text>
<polygon fill="#e7e2dd" stroke="transparent" points="653.86,-1001.96 653.86,-1061.96 1021.86,-1061.96 1021.86,-1001.96 653.86,-1001.96"/>
<polygon fill="none" stroke="#29235c" points="653.86,-1001.96 653.86,-1061.96 1021.86,-1061.96 1021.86,-1001.96 653.86,-1001.96"/>
<text text-anchor="start" x="664.86" y="-1022.16" font-family="Helvetica,sans-Serif" font-size="32.00" fill="#29235c">status &#160;&#160;&#160;</text>
<text text-anchor="start" x="854.43" y="-1023.16" font-family="Helvetica,sans-Serif" font-style="italic" font-size="32.00" fill="#29235c">VARCHAR</text>
<polygon fill="#e7e2dd" stroke="transparent" points="653.86,-941.96 653.86,-1001.96 1021.86,-1001.96 1021.86,-941.96 653.86,-941.96"/>
<polygon fill="none" stroke="#29235c" points="653.86,-941.96 653.86,-1001.96 1021.86,-1001.96 1021.86,-941.96 653.86,-941.96"/>
<text text-anchor="start" x="664.86" y="-962.16" font-family="Helvetica,sans-Serif" font-size="32.00" fill="#29235c">policy_id &#160;&#160;&#160;</text>
<text text-anchor="start" x="868.64" y="-963.16" font-family="Helvetica,sans-Serif" font-style="italic" font-size="32.00" fill="#29235c">INTEGER</text>
<polygon fill="none" stroke="#29235c" stroke-width="2" points="652.86,-940.96 652.86,-1302.96 1022.86,-1302.96 1022.86,-940.96 652.86,-940.96"/>
</g>
<!-- Claim&#45;&gt;Policy -->
<!-- Claim&#45;&gt;Policy -->
<g id="edge12" class="edge">
<title>Claim:e&#45;&gt;Policy:w</title>
<path fill="none" stroke="#29235c" stroke-width="3" d="M1022.86,-971.96C1167.28,-971.96 1108.4,-1200.84 1243.29,-1211.57"/>
<polygon fill="#29235c" stroke="#29235c" stroke-width="3" points="1243.22,-1215.07 1253.35,-1211.96 1243.49,-1208.08 1243.22,-1215.07"/>
<text text-anchor="middle" x="1259.57" y="-1183.16" font-family="Helvetica,sans-Serif" font-size="32.00" fill="#29235c">*</text>
<text text-anchor="middle" x="1013.96" y="-981.56" font-family="Helvetica,sans-Serif" font-size="32.00" fill="#29235c">1</text>
</g>
<!-- Policy&#45;&gt;InsuranceApplication -->
<!-- Policy&#45;&gt;InsuranceApplication -->
<g id="edge14" class="edge">
<title>Policy:e&#45;&gt;InsuranceApplication:w</title>
<path fill="none" stroke="#29235c" stroke-width="3" d="M1806.35,-971.96C1969.28,-971.96 1889,-1242.93 2041.48,-1254.57"/>
<polygon fill="#29235c" stroke="#29235c" stroke-width="3" points="2041.74,-1258.09 2051.87,-1254.96 2042.01,-1251.09 2041.74,-1258.09"/>
<text text-anchor="middle" x="2045.65" y="-1226.16" font-family="Helvetica,sans-Serif" font-size="32.00" fill="#29235c">*</text>
<text text-anchor="middle" x="1797.45" y="-981.56" font-family="Helvetica,sans-Serif" font-size="32.00" fill="#29235c">1</text>
</g>
<!-- Coverage -->
<g id="Coverage" class="node">
<title>Coverage</title>
<ellipse fill="none" stroke="black" stroke-width="0" cx="837.86" cy="-588.96" rx="246.56" ry="257.27"/>
<polygon fill="#1d71b8" stroke="transparent" points="665.86,-708.96 665.86,-768.96 1010.86,-768.96 1010.86,-708.96 665.86,-708.96"/>
<polygon fill="none" stroke="#29235c" points="665.86,-708.96 665.86,-768.96 1010.86,-768.96 1010.86,-708.96 665.86,-708.96"/>
<text text-anchor="start" x="706.76" y="-730.16" font-family="Helvetica,sans-Serif" font-weight="bold" font-size="32.00" fill="#ffffff"> &#160;&#160;&#160;&#160;&#160;&#160;Coverage &#160;&#160;&#160;&#160;&#160;&#160;</text>
<polygon fill="#e7e2dd" stroke="transparent" points="665.86,-648.96 665.86,-708.96 1010.86,-708.96 1010.86,-648.96 665.86,-648.96"/>
<polygon fill="none" stroke="#29235c" points="665.86,-648.96 665.86,-708.96 1010.86,-708.96 1010.86,-648.96 665.86,-648.96"/>
<text text-anchor="start" x="676.86" y="-670.16" font-family="Helvetica,sans-Serif" font-weight="bold" font-size="32.00" fill="#29235c">id</text>
<text text-anchor="start" x="701.75" y="-670.16" font-family="Helvetica,sans-Serif" font-size="32.00" fill="#29235c"> &#160;&#160;&#160;</text>
<text text-anchor="start" x="857.64" y="-670.16" font-family="Helvetica,sans-Serif" font-style="italic" font-size="32.00" fill="#29235c">INTEGER</text>
<polygon fill="#e7e2dd" stroke="transparent" points="665.86,-588.96 665.86,-648.96 1010.86,-648.96 1010.86,-588.96 665.86,-588.96"/>
<polygon fill="none" stroke="#29235c" points="665.86,-588.96 665.86,-648.96 1010.86,-648.96 1010.86,-588.96 665.86,-588.96"/>
<text text-anchor="start" x="676.86" y="-609.16" font-family="Helvetica,sans-Serif" font-size="32.00" fill="#29235c">Type &#160;&#160;&#160;</text>
<text text-anchor="start" x="843.43" y="-610.16" font-family="Helvetica,sans-Serif" font-style="italic" font-size="32.00" fill="#29235c">VARCHAR</text>
<polygon fill="#e7e2dd" stroke="transparent" points="665.86,-528.96 665.86,-588.96 1010.86,-588.96 1010.86,-528.96 665.86,-528.96"/>
<polygon fill="none" stroke="#29235c" points="665.86,-528.96 665.86,-588.96 1010.86,-588.96 1010.86,-528.96 665.86,-528.96"/>
<text text-anchor="start" x="676.86" y="-549.16" font-family="Helvetica,sans-Serif" font-size="32.00" fill="#29235c">limit &#160;&#160;&#160;</text>
<text text-anchor="start" x="857.64" y="-550.16" font-family="Helvetica,sans-Serif" font-style="italic" font-size="32.00" fill="#29235c">INTEGER</text>
<polygon fill="#e7e2dd" stroke="transparent" points="665.86,-468.96 665.86,-528.96 1010.86,-528.96 1010.86,-468.96 665.86,-468.96"/>
<polygon fill="none" stroke="#29235c" points="665.86,-468.96 665.86,-528.96 1010.86,-528.96 1010.86,-468.96 665.86,-468.96"/>
<text text-anchor="start" x="676.66" y="-489.16" font-family="Helvetica,sans-Serif" font-size="32.00" fill="#29235c">deductible &#160;&#160;&#160;</text>
<text text-anchor="start" x="857.75" y="-490.16" font-family="Helvetica,sans-Serif" font-style="italic" font-size="32.00" fill="#29235c">INTEGER</text>
<polygon fill="#e7e2dd" stroke="transparent" points="665.86,-408.96 665.86,-468.96 1010.86,-468.96 1010.86,-408.96 665.86,-408.96"/>
<polygon fill="none" stroke="#29235c" points="665.86,-408.96 665.86,-468.96 1010.86,-468.96 1010.86,-408.96 665.86,-408.96"/>
<text text-anchor="start" x="676.86" y="-429.16" font-family="Helvetica,sans-Serif" font-size="32.00" fill="#29235c">policy_id &#160;&#160;&#160;</text>
<text text-anchor="start" x="857.64" y="-430.16" font-family="Helvetica,sans-Serif" font-style="italic" font-size="32.00" fill="#29235c">INTEGER</text>
<polygon fill="none" stroke="#29235c" stroke-width="2" points="664.36,-407.96 664.36,-769.96 1011.36,-769.96 1011.36,-407.96 664.36,-407.96"/>
</g>
<!-- Coverage&#45;&gt;Policy -->
<!-- Coverage&#45;&gt;Policy -->
<g id="edge16" class="edge">
<title>Coverage:e&#45;&gt;Policy:w</title>
<path fill="none" stroke="#29235c" stroke-width="3" d="M1011.86,-438.96C1368.36,-438.96 902.45,-1197.31 1243.29,-1211.75"/>
<polygon fill="#29235c" stroke="#29235c" stroke-width="3" points="1243.28,-1215.25 1253.35,-1211.96 1243.42,-1208.25 1243.28,-1215.25"/>
<text text-anchor="middle" x="1247.12" y="-1221.56" font-family="Helvetica,sans-Serif" font-size="32.00" fill="#29235c">*</text>
<text text-anchor="middle" x="1002.96" y="-448.56" font-family="Helvetica,sans-Serif" font-size="32.00" fill="#29235c">1</text>
</g>
<!-- Incident -->
<g id="Incident" class="node">
<title>Incident</title>
<ellipse fill="none" stroke="black" stroke-width="0" cx="2888.99" cy="-244.96" rx="263.09" ry="172.57"/>
<polygon fill="#1d71b8" stroke="transparent" points="2704.99,-304.96 2704.99,-364.96 3072.99,-364.96 3072.99,-304.96 2704.99,-304.96"/>
<polygon fill="none" stroke="#29235c" points="2704.99,-304.96 2704.99,-364.96 3072.99,-364.96 3072.99,-304.96 2704.99,-304.96"/>
<text text-anchor="start" x="2770.72" y="-326.16" font-family="Helvetica,sans-Serif" font-weight="bold" font-size="32.00" fill="#ffffff"> &#160;&#160;&#160;&#160;&#160;&#160;Incident &#160;&#160;&#160;&#160;&#160;&#160;</text>
<polygon fill="#e7e2dd" stroke="transparent" points="2704.99,-244.96 2704.99,-304.96 3072.99,-304.96 3072.99,-244.96 2704.99,-244.96"/>
<polygon fill="none" stroke="#29235c" points="2704.99,-244.96 2704.99,-304.96 3072.99,-304.96 3072.99,-244.96 2704.99,-244.96"/>
<text text-anchor="start" x="2715.99" y="-266.16" font-family="Helvetica,sans-Serif" font-weight="bold" font-size="32.00" fill="#29235c">id</text>
<text text-anchor="start" x="2740.88" y="-266.16" font-family="Helvetica,sans-Serif" font-size="32.00" fill="#29235c"> &#160;&#160;&#160;</text>
<text text-anchor="start" x="2919.77" y="-266.16" font-family="Helvetica,sans-Serif" font-style="italic" font-size="32.00" fill="#29235c">INTEGER</text>
<polygon fill="#e7e2dd" stroke="transparent" points="2704.99,-184.96 2704.99,-244.96 3072.99,-244.96 3072.99,-184.96 2704.99,-184.96"/>
<polygon fill="none" stroke="#29235c" points="2704.99,-184.96 2704.99,-244.96 3072.99,-244.96 3072.99,-184.96 2704.99,-184.96"/>
<text text-anchor="start" x="2715.99" y="-205.16" font-family="Helvetica,sans-Serif" font-size="32.00" fill="#29235c">incident_date &#160;&#160;&#160;</text>
<text text-anchor="start" x="2976.66" y="-206.16" font-family="Helvetica,sans-Serif" font-style="italic" font-size="32.00" fill="#29235c">DATE</text>
<polygon fill="#e7e2dd" stroke="transparent" points="2704.99,-124.96 2704.99,-184.96 3072.99,-184.96 3072.99,-124.96 2704.99,-124.96"/>
<polygon fill="none" stroke="#29235c" points="2704.99,-124.96 2704.99,-184.96 3072.99,-184.96 3072.99,-124.96 2704.99,-124.96"/>
<text text-anchor="start" x="2715.86" y="-145.16" font-family="Helvetica,sans-Serif" font-size="32.00" fill="#29235c">description &#160;&#160;&#160;</text>
<text text-anchor="start" x="2905.78" y="-146.16" font-family="Helvetica,sans-Serif" font-style="italic" font-size="32.00" fill="#29235c">VARCHAR</text>
<polygon fill="none" stroke="#29235c" stroke-width="2" points="2703.99,-123.96 2703.99,-365.96 3073.99,-365.96 3073.99,-123.96 2703.99,-123.96"/>
</g>
<!-- IncidentReport -->
<g id="IncidentReport" class="node">
<title>IncidentReport</title>
<ellipse fill="none" stroke="black" stroke-width="0" cx="2273.87" cy="-214.96" rx="258.19" ry="214.92"/>
<polygon fill="#1d71b8" stroke="transparent" points="2093.87,-304.96 2093.87,-364.96 2454.87,-364.96 2454.87,-304.96 2093.87,-304.96"/>
<polygon fill="none" stroke="#29235c" points="2093.87,-304.96 2093.87,-364.96 2454.87,-364.96 2454.87,-304.96 2093.87,-304.96"/>
<text text-anchor="start" x="2108.09" y="-326.16" font-family="Helvetica,sans-Serif" font-weight="bold" font-size="32.00" fill="#ffffff"> &#160;&#160;&#160;&#160;&#160;&#160;IncidentReport &#160;&#160;&#160;&#160;&#160;&#160;</text>
<polygon fill="#e7e2dd" stroke="transparent" points="2093.87,-244.96 2093.87,-304.96 2454.87,-304.96 2454.87,-244.96 2093.87,-244.96"/>
<polygon fill="none" stroke="#29235c" points="2093.87,-244.96 2093.87,-304.96 2454.87,-304.96 2454.87,-244.96 2093.87,-244.96"/>
<text text-anchor="start" x="2104.87" y="-266.16" font-family="Helvetica,sans-Serif" font-weight="bold" font-size="32.00" fill="#29235c">id</text>
<text text-anchor="start" x="2129.76" y="-266.16" font-family="Helvetica,sans-Serif" font-size="32.00" fill="#29235c"> &#160;&#160;&#160;</text>
<text text-anchor="start" x="2301.65" y="-266.16" font-family="Helvetica,sans-Serif" font-style="italic" font-size="32.00" fill="#29235c">INTEGER</text>
<polygon fill="#e7e2dd" stroke="transparent" points="2093.87,-184.96 2093.87,-244.96 2454.87,-244.96 2454.87,-184.96 2093.87,-184.96"/>
<polygon fill="none" stroke="#29235c" points="2093.87,-184.96 2093.87,-244.96 2454.87,-244.96 2454.87,-184.96 2093.87,-184.96"/>
<text text-anchor="start" x="2104.87" y="-205.16" font-family="Helvetica,sans-Serif" font-size="32.00" fill="#29235c">report_date &#160;&#160;&#160;</text>
<text text-anchor="start" x="2358.54" y="-206.16" font-family="Helvetica,sans-Serif" font-style="italic" font-size="32.00" fill="#29235c">DATE</text>
<polygon fill="#e7e2dd" stroke="transparent" points="2093.87,-124.96 2093.87,-184.96 2454.87,-184.96 2454.87,-124.96 2093.87,-124.96"/>
<polygon fill="none" stroke="#29235c" points="2093.87,-124.96 2093.87,-184.96 2454.87,-184.96 2454.87,-124.96 2093.87,-124.96"/>
<text text-anchor="start" x="2104.87" y="-145.16" font-family="Helvetica,sans-Serif" font-size="32.00" fill="#29235c">incident_id &#160;&#160;&#160;</text>
<text text-anchor="start" x="2301.65" y="-146.16" font-family="Helvetica,sans-Serif" font-style="italic" font-size="32.00" fill="#29235c">INTEGER</text>
<polygon fill="#e7e2dd" stroke="transparent" points="2093.87,-64.96 2093.87,-124.96 2454.87,-124.96 2454.87,-64.96 2093.87,-64.96"/>
<polygon fill="none" stroke="#29235c" points="2093.87,-64.96 2093.87,-124.96 2454.87,-124.96 2454.87,-64.96 2093.87,-64.96"/>
<text text-anchor="start" x="2104.69" y="-85.16" font-family="Helvetica,sans-Serif" font-size="32.00" fill="#29235c">claimant_id &#160;&#160;&#160;</text>
<text text-anchor="start" x="2301.76" y="-86.16" font-family="Helvetica,sans-Serif" font-style="italic" font-size="32.00" fill="#29235c">INTEGER</text>
<polygon fill="none" stroke="#29235c" stroke-width="2" points="2092.37,-63.96 2092.37,-365.96 2455.37,-365.96 2455.37,-63.96 2092.37,-63.96"/>
</g>
<!-- IncidentReport&#45;&gt;Customer -->
<!-- IncidentReport&#45;&gt;Customer -->
<g id="edge18" class="edge">
<title>IncidentReport:e&#45;&gt;Customer:w</title>
<path fill="none" stroke="#29235c" stroke-width="3" d="M2455.87,-94.96C2619.96,-94.96 2534.5,-284.52 2589.94,-438.96 2645.01,-592.35 2544.9,-786.42 2696.63,-794.69"/>
<polygon fill="#29235c" stroke="#29235c" stroke-width="3" points="2696.9,-798.2 2706.99,-794.96 2697.08,-791.2 2696.9,-798.2"/>
<text text-anchor="middle" x="2700.77" y="-766.16" font-family="Helvetica,sans-Serif" font-size="32.00" fill="#29235c">*</text>
<text text-anchor="middle" x="2446.97" y="-66.16" font-family="Helvetica,sans-Serif" font-size="32.00" fill="#29235c">1</text>
</g>
<!-- IncidentReport&#45;&gt;Incident -->
<!-- IncidentReport&#45;&gt;Incident -->
<g id="edge20" class="edge">
<title>IncidentReport:e&#45;&gt;Incident:w</title>
<path fill="none" stroke="#29235c" stroke-width="3" d="M2455.87,-154.96C2574.89,-154.96 2581.22,-268.26 2693.86,-274.68"/>
<polygon fill="#29235c" stroke="#29235c" stroke-width="3" points="2693.89,-278.18 2703.99,-274.96 2694.09,-271.18 2693.89,-278.18"/>
<text text-anchor="middle" x="2697.77" y="-246.16" font-family="Helvetica,sans-Serif" font-size="32.00" fill="#29235c">*</text>
<text text-anchor="middle" x="2446.97" y="-126.16" font-family="Helvetica,sans-Serif" font-size="32.00" fill="#29235c">1</text>
</g>
<!-- Vehicle -->
<g id="Vehicle" class="node">
<title>Vehicle</title>
<ellipse fill="none" stroke="black" stroke-width="0" cx="2273.87" cy="-704.96" rx="266.66" ry="257.27"/>
<polygon fill="#1d71b8" stroke="transparent" points="2087.87,-824.96 2087.87,-884.96 2460.87,-884.96 2460.87,-824.96 2087.87,-824.96"/>
<polygon fill="none" stroke="#29235c" points="2087.87,-824.96 2087.87,-884.96 2460.87,-884.96 2460.87,-824.96 2087.87,-824.96"/>
<text text-anchor="start" x="2159.66" y="-846.16" font-family="Helvetica,sans-Serif" font-weight="bold" font-size="32.00" fill="#ffffff"> &#160;&#160;&#160;&#160;&#160;&#160;Vehicle &#160;&#160;&#160;&#160;&#160;&#160;</text>
<polygon fill="#e7e2dd" stroke="transparent" points="2087.87,-764.96 2087.87,-824.96 2460.87,-824.96 2460.87,-764.96 2087.87,-764.96"/>
<polygon fill="none" stroke="#29235c" points="2087.87,-764.96 2087.87,-824.96 2460.87,-824.96 2460.87,-764.96 2087.87,-764.96"/>
<text text-anchor="start" x="2098.87" y="-786.16" font-family="Helvetica,sans-Serif" font-weight="bold" font-size="32.00" fill="#29235c">id</text>
<text text-anchor="start" x="2123.76" y="-786.16" font-family="Helvetica,sans-Serif" font-size="32.00" fill="#29235c"> &#160;&#160;&#160;</text>
<text text-anchor="start" x="2307.65" y="-786.16" font-family="Helvetica,sans-Serif" font-style="italic" font-size="32.00" fill="#29235c">INTEGER</text>
<polygon fill="#e7e2dd" stroke="transparent" points="2087.87,-704.96 2087.87,-764.96 2460.87,-764.96 2460.87,-704.96 2087.87,-704.96"/>
<polygon fill="none" stroke="#29235c" points="2087.87,-704.96 2087.87,-764.96 2460.87,-764.96 2460.87,-704.96 2087.87,-704.96"/>
<text text-anchor="start" x="2098.87" y="-725.16" font-family="Helvetica,sans-Serif" font-size="32.00" fill="#29235c">make &#160;&#160;&#160;</text>
<text text-anchor="start" x="2293.44" y="-726.16" font-family="Helvetica,sans-Serif" font-style="italic" font-size="32.00" fill="#29235c">VARCHAR</text>
<polygon fill="#e7e2dd" stroke="transparent" points="2087.87,-644.96 2087.87,-704.96 2460.87,-704.96 2460.87,-644.96 2087.87,-644.96"/>
<polygon fill="none" stroke="#29235c" points="2087.87,-644.96 2087.87,-704.96 2460.87,-704.96 2460.87,-644.96 2087.87,-644.96"/>
<text text-anchor="start" x="2098.87" y="-665.16" font-family="Helvetica,sans-Serif" font-size="32.00" fill="#29235c">model &#160;&#160;&#160;</text>
<text text-anchor="start" x="2293.44" y="-666.16" font-family="Helvetica,sans-Serif" font-style="italic" font-size="32.00" fill="#29235c">VARCHAR</text>
<polygon fill="#e7e2dd" stroke="transparent" points="2087.87,-584.96 2087.87,-644.96 2460.87,-644.96 2460.87,-584.96 2087.87,-584.96"/>
<polygon fill="none" stroke="#29235c" points="2087.87,-584.96 2087.87,-644.96 2460.87,-644.96 2460.87,-584.96 2087.87,-584.96"/>
<text text-anchor="start" x="2098.87" y="-605.16" font-family="Helvetica,sans-Serif" font-size="32.00" fill="#29235c">year &#160;&#160;&#160;</text>
<text text-anchor="start" x="2307.65" y="-606.16" font-family="Helvetica,sans-Serif" font-style="italic" font-size="32.00" fill="#29235c">INTEGER</text>
<polygon fill="#e7e2dd" stroke="transparent" points="2087.87,-524.96 2087.87,-584.96 2460.87,-584.96 2460.87,-524.96 2087.87,-524.96"/>
<polygon fill="none" stroke="#29235c" points="2087.87,-524.96 2087.87,-584.96 2460.87,-584.96 2460.87,-524.96 2087.87,-524.96"/>
<text text-anchor="start" x="2098.46" y="-545.16" font-family="Helvetica,sans-Serif" font-size="32.00" fill="#29235c">customer_id &#160;&#160;&#160;</text>
<text text-anchor="start" x="2307.76" y="-546.16" font-family="Helvetica,sans-Serif" font-style="italic" font-size="32.00" fill="#29235c">INTEGER</text>
<polygon fill="none" stroke="#29235c" stroke-width="2" points="2086.37,-523.96 2086.37,-885.96 2461.37,-885.96 2461.37,-523.96 2086.37,-523.96"/>
</g>
<!-- Vehicle&#45;&gt;Customer -->
<!-- Vehicle&#45;&gt;Customer -->
<g id="edge22" class="edge">
<title>Vehicle:e&#45;&gt;Customer:w</title>
<path fill="none" stroke="#29235c" stroke-width="3" d="M2461.87,-554.96C2610.76,-554.96 2557.21,-783.84 2696.61,-794.57"/>
<polygon fill="#29235c" stroke="#29235c" stroke-width="3" points="2696.86,-798.08 2706.99,-794.96 2697.13,-791.09 2696.86,-798.08"/>
<text text-anchor="middle" x="2713.21" y="-804.56" font-family="Helvetica,sans-Serif" font-size="32.00" fill="#29235c">*</text>
<text text-anchor="middle" x="2452.97" y="-564.56" font-family="Helvetica,sans-Serif" font-size="32.00" fill="#29235c">1</text>
</g>
</g>
</svg>
